<?xml version="1.0" encoding="UTF-8" standalone="no"?>
<svg
   xmlns:dc="http://purl.org/dc/elements/1.1/"
   xmlns:cc="http://creativecommons.org/ns#"
   xmlns:rdf="http://www.w3.org/1999/02/22-rdf-syntax-ns#"
   xmlns:svg="http://www.w3.org/2000/svg"
   xmlns="http://www.w3.org/2000/svg"
   viewBox="0 0 2560 1440"
   height="1440"
   width="2560"
   xml:space="preserve"
   id="svg2"
   version="1.1"><metadata
     id="metadata8"><rdf:RDF><cc:Work
         rdf:about=""><dc:format>image/svg+xml</dc:format><dc:type
           rdf:resource="http://purl.org/dc/dcmitype/StillImage" /></cc:Work></rdf:RDF></metadata><defs
     id="defs6"><clipPath
       id="clipPath20"
       clipPathUnits="userSpaceOnUse"><path
         id="path18"
         d="M 0,1080 H 1920 V 0 H 0 Z" /></clipPath></defs><g
     transform="matrix(1.3333333,0,0,-1.3333333,0,1440)"
     id="g10"><path
       id="path12"
       style="fill:#442921;fill-opacity:1;fill-rule:nonzero;stroke:none"
       d="M 0,0 H 1920 V 1080 H 0 Z" /><g
       id="g14"><g
         clip-path="url(#clipPath20)"
         id="g16"><g
           transform="translate(935.9297,816.5127)"
           id="g22"><path
             id="path24"
             style="fill:#fcf6d5;fill-opacity:1;fill-rule:nonzero;stroke:none"
             d="M 0,0 C 6.039,-4.829 13.591,-5.422 16.867,-1.323 20.145,2.774 17.904,10.011 11.866,14.839 5.827,19.668 -1.725,20.261 -5.001,16.163 -8.277,12.065 -6.039,4.829 0,0" /></g><g
           transform="translate(975.9297,788.5127)"
           id="g26"><path
             id="path28"
             style="fill:#fcf6d5;fill-opacity:1;fill-rule:nonzero;stroke:none"
             d="M 0,0 C 6.039,-4.829 13.591,-5.422 16.867,-1.323 20.145,2.774 17.904,10.011 11.866,14.839 5.827,19.668 -1.725,20.261 -5.001,16.163 -8.277,12.065 -6.039,4.829 0,0" /></g><g
           transform="translate(961.0039,615.5059)"
           id="g30"><path
             id="path32"
             style="fill:#fcf6d5;fill-opacity:1;fill-rule:nonzero;stroke:none"
             d="m 0,0 c -0.377,1.773 -2.914,1.753 -3.264,-0.025 l -8.558,-43.503 c -0.203,-1.03 0.585,-1.988 1.634,-1.988 H 7.638 c 1.059,0 1.85,0.977 1.63,2.013 z" /></g><g
           transform="translate(1260.3047,635.29)"
           id="g34"><path
             id="path36"
             style="fill:#fcf6d5;fill-opacity:1;fill-rule:nonzero;stroke:none"
             d="m 0,0 c -15.172,0 -25.443,-17.75 -25.443,-44.26 0,-26.73 10.271,-44.48 25.443,-44.48 14.938,0 24.984,17.75 24.984,44.48 C 24.984,-17.75 14.938,0 0,0" /></g><g
           transform="translate(1400.6602,459.3906)"
           id="g38"><path
             id="path40"
             style="fill:#fcf6d5;fill-opacity:1;fill-rule:nonzero;stroke:none"
             d="m 0,0 c -21.359,0 -37.908,4.82 -48.579,12.104 -0.45,0.308 -0.714,0.821 -0.718,1.367 L -49.64,60.02 c -0.008,1.265 1.335,2.066 2.455,1.478 16.341,-8.574 32.49,-12.779 46.065,-12.779 12.04,0 17.36,5.041 17.36,12.881 0,25.49 -72.81,35.849 -72.81,96.889 0,36.13 25.2,56.851 65.81,56.851 20.299,0 37.371,-5.104 50.428,-14.795 0.425,-0.316 0.672,-0.818 0.672,-1.347 v -48.442 c 0,-1.291 -1.408,-2.098 -2.516,-1.434 -15.63,9.394 -33.066,17.297 -46.064,17.297 -7.84,0 -12.88,-3.369 -12.88,-10.09 0,-24.359 74.76,-33.599 74.76,-96.05 C 73.64,24.079 47.6,0 0,0 m -140.355,47.719 c -43.887,0 -73.305,33.52 -73.305,83.921 0,50.179 29.418,83.7 73.305,83.7 43.652,0 72.835,-33.521 72.835,-83.7 0,-50.401 -29.183,-83.921 -72.835,-83.921 m -81.391,163.086 -6.92,-15.522 c -0.095,-0.213 -0.145,-0.444 -0.145,-0.678 V 50.476 c 0,-0.921 -0.746,-1.666 -1.666,-1.666 h -20.281 c -0.529,0 -1.027,0.251 -1.342,0.677 l -54.123,73.47 c -0.953,1.295 -3.007,0.62 -3.007,-0.988 V 67.354 c 0,-0.234 0.049,-0.465 0.144,-0.678 l 6.92,-15.522 c 0.492,-1.102 -0.314,-2.344 -1.521,-2.344 h -55.125 c -1.208,0 -2.014,1.242 -1.522,2.344 l 6.92,15.522 c 0.095,0.213 0.144,0.444 0.144,0.678 v 127.251 c 0,0.234 -0.049,0.465 -0.144,0.678 l -6.92,15.522 c -0.492,1.101 0.314,2.344 1.522,2.344 h 30.537 c 0.542,0 1.05,-0.264 1.363,-0.708 l 50.812,-72.33 c 0.936,-1.332 3.03,-0.67 3.03,0.958 v 53.977 c 0,0.233 -0.049,0.464 -0.144,0.677 l -6.704,15.084 c -0.49,1.101 0.316,2.342 1.522,2.342 h 55.128 c 1.207,0 2.014,-1.243 1.522,-2.344 M -250.09,-61.221 h -18.642 v 22.688 h -31.658 v -22.688 h -18.642 v 58.566 h 18.642 v -23.391 h 31.658 v 23.391 h 18.642 z m -75.676,-86.107 c -58.179,-72.068 -140.423,-117.736 -232.119,-129.048 l -15.399,144.42 250.854,-11.134 c -1.107,-1.415 -2.205,-2.836 -3.336,-4.238 m -308.678,86.107 v 58.566 h 18.642 V -47.15 h 43.529 v -14.071 z m -4.528,110.031 h -54.507 c -1.054,0 -1.843,0.966 -1.632,1.999 l 3.31,16.191 h 0.441 l -16.701,47.961 c -0.233,0.67 -0.865,1.118 -1.574,1.118 -0.92,0 -1.666,-0.745 -1.666,-1.666 V 67.264 c 0,-0.175 0.029,-0.349 0.082,-0.516 l 5.129,-15.757 c 0.35,-1.077 -0.452,-2.181 -1.584,-2.181 h -52.989 c -1.206,0 -2.013,1.242 -1.522,2.344 l 6.92,15.522 c 0.095,0.213 0.145,0.444 0.145,0.678 v 127.251 c 0,0.234 -0.05,0.465 -0.145,0.678 l -6.92,15.522 c -0.491,1.101 0.316,2.344 1.522,2.344 h 73.253 c 27.16,0 45.349,-20.379 45.349,-48.43 0,-20.799 -10.285,-36.661 -25.865,-44.006 -0.832,-0.392 -1.208,-1.365 -0.82,-2.199 l 31.285,-67.336 c 0.514,-1.105 -0.293,-2.368 -1.511,-2.368 M -767.373,-2.781 h -72.801 c -1.178,0 -1.984,1.188 -1.549,2.282 l 8.593,21.608 h 0.29 l -3.178,14.814 c -0.165,0.767 -0.843,1.316 -1.628,1.316 h -42.768 c -0.799,0 -1.485,-0.566 -1.637,-1.35 l -2.806,-14.578 c -0.061,-0.315 -0.03,-0.639 0.089,-0.937 l 8.397,-20.866 c 0.441,-1.096 -0.365,-2.289 -1.545,-2.289 h -69.247 c -1.206,0 -2.013,1.243 -1.523,2.344 l 9.559,21.441 c 0.031,0.07 0.058,0.142 0.079,0.217 l 48.45,167.739 c 0.109,0.374 0.082,0.774 -0.074,1.132 l -9.094,20.722 c -0.482,1.101 0.325,2.335 1.526,2.335 h 81.547 c 1.205,0 2.011,-1.241 1.523,-2.342 l -9.07,-20.416 c -0.162,-0.363 -0.188,-0.77 -0.075,-1.151 l 50.182,-169.203 c 0.015,-0.052 0.033,-0.102 0.053,-0.152 l 8.252,-20.374 c 0.443,-1.095 -0.363,-2.292 -1.545,-2.292 m 204.594,0.126 h 18.553 v -32.624 c 0,-9.058 5.716,-14.51 16.972,-14.51 11.433,0 16.357,5.452 16.357,14.51 v 32.624 h 16.795 v -33.504 c 0,-14.862 -9.936,-27.26 -34.382,-27.26 -23.919,0 -34.295,12.047 -34.295,27.26 z m 7.489,89.374 c 11.22,0 22.061,3.104 32.244,8.092 1.102,0.54 2.386,-0.272 2.386,-1.498 V 56.76 l -0.01,-0.061 c -8.77,-6.79 -21.25,-10.08 -35.5,-10.08 -41.85,0 -70.551,34.62 -70.551,83.051 0,51.489 29.141,85.67 71.651,85.67 11.09,0 22.391,-3.325 30.865,-10.979 0.35,-0.315 0.545,-0.77 0.545,-1.242 v -37.713 c 0,-1.355 -1.529,-2.135 -2.633,-1.349 -9.326,6.635 -19.056,10.742 -28.777,10.742 -14.901,0 -26.731,-17.31 -26.731,-45.129 0,-24.761 11.83,-42.951 26.511,-42.951 m 143.934,-89.374 v -58.566 h -15.917 l -31.129,31.658 -3.782,4.044 v -35.702 h -17.675 v 58.566 h 16.356 l 30.602,-31.57 3.869,-4.132 v 35.702 z m -14.399,51.465 c -1.177,0 -1.983,1.187 -1.548,2.281 L -420.98,67 h 0.22 l -2.347,10.953 c -0.165,0.768 -0.844,1.317 -1.629,1.317 h -31.899 c -0.799,0 -1.484,-0.567 -1.636,-1.351 l -2.055,-10.657 c -0.062,-0.315 -0.029,-0.641 0.09,-0.939 l 6.134,-15.225 c 0.441,-1.095 -0.365,-2.288 -1.545,-2.288 h -51.506 c -1.206,0 -2.013,1.242 -1.522,2.344 l 7.018,15.741 c 0.031,0.07 0.057,0.142 0.079,0.215 l 36.83,127.49 c 0.109,0.375 0.082,0.775 -0.074,1.132 l -6.622,15.081 c -0.484,1.101 0.323,2.336 1.525,2.336 h 60.845 c 1.206,0 2.012,-1.241 1.522,-2.342 l -6.598,-14.846 c -0.162,-0.362 -0.188,-0.771 -0.076,-1.15 l 38.143,-128.614 c 0.015,-0.051 0.033,-0.102 0.054,-0.152 l 6.059,-14.943 c 0.445,-1.096 -0.362,-2.292 -1.544,-2.292 z m 65.924,-98.599 c 8.706,0 16.532,3.869 21.018,7.914 l 8.529,-10.464 c -6.419,-6.332 -17.587,-11.08 -31.306,-11.08 -23.127,0 -37.988,13.981 -37.988,30.69 v 1.231 c 0,16.708 15.476,31.041 38.253,31.041 13.454,0 25.325,-4.748 31.568,-11.256 l -9.233,-10.376 c -4.836,4.485 -12.135,7.914 -21.281,7.914 -12.663,0 -20.313,-7.914 -20.313,-17.587 v -0.704 c 0,-9.585 7.65,-17.323 20.753,-17.323 m -273.167,477.821 c 92.016,8.273 182.045,-19.021 254.111,-77.199 24.364,-19.668 45.689,-42.101 63.711,-66.704 l -303.915,13.489 z m 332.959,-144.575 c -19.885,28.766 -43.766,54.478 -71.309,76.713 -37.011,29.878 -78.757,51.983 -124.082,65.702 -46.927,14.203 -95.644,18.747 -144.81,13.505 l -5.967,-0.636 14.99,-140.585 -344.074,15.272 -104.064,-422.922 493.945,-21.924 16.234,-152.245 0.637,-5.967 5.965,0.637 c 49.164,5.242 95.832,19.958 138.709,43.738 41.412,22.967 77.558,53.379 107.435,90.389 2.954,3.659 5.81,7.378 8.612,11.128 L 93.971,-161.572 198.035,261.35 Z" /></g><g
           transform="translate(542.4453,600.1006)"
           id="g42"><path
             id="path44"
             style="fill:#fcf6d5;fill-opacity:1;fill-rule:nonzero;stroke:none"
             d="m 0,0 c -0.378,1.772 -2.914,1.752 -3.264,-0.026 l -11.86,-60.287 c -0.202,-1.03 0.585,-1.988 1.635,-1.988 h 24.716 c 1.059,0 1.849,0.978 1.628,2.014 z" /></g><g
           transform="translate(701.1895,639.0098)"
           id="g46"><path
             id="path48"
             style="fill:#fcf6d5;fill-opacity:1;fill-rule:nonzero;stroke:none"
             d="m 0,0 h -10.164 c -0.92,0 -1.666,-0.746 -1.666,-1.666 v -27.338 c 0,-0.92 0.746,-1.666 1.666,-1.666 H 0 c 9.42,0 15.561,6.13 15.561,15.34 C 15.561,-6.35 9.42,0 0,0" /></g><g
           transform="translate(553.6719,537.7998)"
           id="g50"><path
             id="path52"
             style="fill:#f15a27;fill-opacity:1;fill-rule:nonzero;stroke:none"
             d="m 0,0 h -24.716 c -1.05,0 -1.837,0.958 -1.635,1.987 l 11.861,60.287 c 0.349,1.779 2.886,1.799 3.263,0.027 L 1.629,2.014 C 1.85,0.978 1.06,0 0,0 m 72.908,-58.524 c -0.019,0.049 -0.038,0.1 -0.053,0.152 L 22.673,110.831 c -0.112,0.381 -0.087,0.788 0.075,1.15 l 9.07,20.416 c 0.489,1.102 -0.318,2.343 -1.523,2.343 h -81.547 c -1.201,0 -2.008,-1.234 -1.525,-2.335 l 9.093,-20.722 c 0.157,-0.358 0.183,-0.758 0.075,-1.132 L -92.06,-57.188 c -0.021,-0.075 -0.047,-0.147 -0.079,-0.217 l -9.558,-21.441 c -0.491,-1.101 0.316,-2.344 1.522,-2.344 h 69.247 c 1.18,0 1.987,1.193 1.545,2.289 l -8.396,20.866 c -0.119,0.298 -0.151,0.622 -0.09,0.936 l 2.806,14.578 c 0.152,0.785 0.838,1.351 1.637,1.351 H 9.342 c 0.785,0 1.464,-0.549 1.629,-1.316 L 14.148,-57.3 h -0.29 L 5.266,-78.908 C 4.83,-80.002 5.637,-81.19 6.814,-81.19 h 72.801 c 1.182,0 1.989,1.197 1.545,2.292 z" /></g><g
           transform="translate(701.1895,608.3398)"
           id="g54"><path
             id="path56"
             style="fill:#f15a27;fill-opacity:1;fill-rule:nonzero;stroke:none"
             d="m 0,0 h -10.164 c -0.92,0 -1.666,0.746 -1.666,1.666 v 27.338 c 0,0.92 0.746,1.666 1.666,1.666 H 0 c 9.42,0 15.561,-6.35 15.561,-15.33 C 15.561,6.13 9.42,0 0,0 m 30.725,-30.436 c -0.388,0.834 -0.012,1.808 0.82,2.2 15.58,7.344 25.865,23.207 25.865,44.006 0,28.05 -18.189,48.43 -45.349,48.43 h -73.253 c -1.206,0 -2.013,-1.243 -1.522,-2.345 l 6.92,-15.521 c 0.095,-0.213 0.145,-0.444 0.145,-0.678 V -81.596 c 0,-0.233 -0.05,-0.465 -0.145,-0.677 l -6.92,-15.522 c -0.491,-1.102 0.316,-2.345 1.522,-2.345 h 52.989 c 1.132,0 1.933,1.105 1.584,2.182 l -5.129,15.757 c -0.054,0.167 -0.082,0.341 -0.082,0.515 v 47.15 c 0,0.921 0.746,1.666 1.666,1.666 0.709,0 1.341,-0.448 1.574,-1.118 L 8.11,-81.949 H 7.67 L 4.359,-98.141 c -0.211,-1.032 0.578,-1.999 1.633,-1.999 h 54.507 c 1.218,0 2.024,1.264 1.511,2.369 z" /></g><g
           transform="translate(845.5898,634.1895)"
           id="g58"><path
             id="path60"
             style="fill:#f15a27;fill-opacity:1;fill-rule:nonzero;stroke:none"
             d="m 0,0 c 9.722,0 19.451,-4.106 28.777,-10.742 1.104,-0.785 2.633,-0.006 2.633,1.349 V 28.32 c 0,0.472 -0.195,0.927 -0.545,1.242 C 22.392,37.216 11.09,40.541 0,40.541 c -42.51,0 -71.65,-34.181 -71.65,-85.67 0,-48.431 28.701,-83.051 70.55,-83.051 14.25,0 26.73,3.29 35.5,10.08 l 0.01,0.061 v 36.553 c 0,1.226 -1.284,2.038 -2.386,1.498 C 21.841,-84.976 11,-88.08 -0.22,-88.08 c -14.68,0 -26.51,18.19 -26.51,42.951 C -26.73,-17.31 -14.9,0 0,0" /></g><g
           transform="translate(968.6416,569.9902)"
           id="g62"><path
             id="path64"
             style="fill:#f15a27;fill-opacity:1;fill-rule:nonzero;stroke:none"
             d="m 0,0 h -17.825 c -1.05,0 -1.838,0.958 -1.635,1.987 l 8.559,43.503 c 0.349,1.779 2.886,1.799 3.263,0.026 L 1.63,2.013 C 1.851,0.977 1.06,0 0,0 m 62.049,-59.498 -6.06,14.943 c -0.02,0.05 -0.039,0.101 -0.053,0.153 L 17.793,84.211 c -0.112,0.38 -0.087,0.788 0.075,1.15 l 6.599,14.846 c 0.489,1.102 -0.317,2.343 -1.523,2.343 H -37.9 c -1.203,0 -2.009,-1.236 -1.526,-2.336 l 6.622,-15.081 c 0.157,-0.358 0.184,-0.758 0.075,-1.133 L -69.56,-43.489 c -0.021,-0.074 -0.047,-0.146 -0.079,-0.216 l -7.017,-15.74 c -0.491,-1.103 0.315,-2.345 1.521,-2.345 h 51.506 c 1.181,0 1.986,1.193 1.546,2.288 l -6.135,15.226 c -0.119,0.297 -0.151,0.624 -0.09,0.938 l 2.055,10.657 c 0.152,0.785 0.838,1.351 1.637,1.351 H 7.282 c 0.785,0 1.464,-0.549 1.629,-1.316 L 11.259,-43.6 H 11.038 L 4.716,-59.509 C 4.28,-60.603 5.087,-61.79 6.264,-61.79 h 54.241 c 1.182,0 1.988,1.196 1.544,2.292" /></g><g
           transform="translate(1177.3926,672.54)"
           id="g66"><path
             id="path68"
             style="fill:#f15a27;fill-opacity:1;fill-rule:nonzero;stroke:none"
             d="m 0,0 h -55.129 c -1.205,0 -2.012,-1.241 -1.521,-2.343 l 6.704,-15.084 c 0.094,-0.213 0.143,-0.443 0.143,-0.677 V -72.08 c 0,-1.628 -2.093,-2.29 -3.029,-0.958 l -50.813,72.33 C -103.957,-0.265 -104.466,0 -105.008,0 h -30.537 c -1.207,0 -2.014,-1.243 -1.521,-2.345 l 6.92,-15.521 c 0.094,-0.213 0.144,-0.445 0.144,-0.678 v -127.252 c 0,-0.233 -0.05,-0.465 -0.144,-0.678 l -6.92,-15.521 c -0.493,-1.103 0.314,-2.345 1.521,-2.345 h 55.125 c 1.207,0 2.014,1.242 1.522,2.345 l -6.92,15.521 c -0.095,0.213 -0.145,0.445 -0.145,0.678 v 54.615 c 0,1.609 2.055,2.284 3.008,0.989 l 54.123,-73.47 c 0.314,-0.427 0.812,-0.678 1.342,-0.678 h 20.281 c 0.92,0 1.666,0.745 1.666,1.666 v 144.13 c 0,0.233 0.05,0.465 0.145,0.678 L 1.521,-2.345 C 2.014,-1.243 1.207,0 0,0" /></g><g
           transform="translate(1260.3047,546.5498)"
           id="g70"><path
             id="path72"
             style="fill:#f15a27;fill-opacity:1;fill-rule:nonzero;stroke:none"
             d="m 0,0 c -15.172,0 -25.443,17.75 -25.443,44.48 0,26.51 10.271,44.26 25.443,44.26 14.938,0 24.984,-17.75 24.984,-44.26 C 24.984,17.75 14.938,0 0,0 m 0,128.181 c -43.887,0 -73.305,-33.521 -73.305,-83.701 0,-50.4 29.418,-83.92 73.305,-83.92 43.652,0 72.836,33.52 72.836,83.92 0,50.18 -29.184,83.701 -72.836,83.701" /></g><g
           transform="translate(1399.54,615.9199)"
           id="g74"><path
             id="path76"
             style="fill:#f15a27;fill-opacity:1;fill-rule:nonzero;stroke:none"
             d="m 0,0 c 0,6.721 5.04,10.09 12.88,10.09 12.998,0 30.434,-7.903 46.064,-17.297 1.108,-0.664 2.516,0.143 2.516,1.434 v 48.442 c 0,0.528 -0.247,1.031 -0.672,1.347 -13.057,9.691 -30.129,14.795 -50.428,14.795 -40.61,0 -65.81,-20.721 -65.81,-56.851 0,-61.04 72.81,-71.399 72.81,-96.89 0,-7.84 -5.32,-12.881 -17.36,-12.881 -13.575,0 -29.724,4.206 -46.064,12.78 -1.121,0.588 -2.464,-0.213 -2.456,-1.479 l 0.343,-46.549 c 0.004,-0.545 0.268,-1.058 0.718,-1.366 10.671,-7.284 27.22,-12.104 48.579,-12.104 47.6,0 73.64,24.079 73.64,60.479 C 74.76,-33.6 0,-24.359 0,0" /></g><g
           transform="translate(828.3867,412.2402)"
           id="g78"><path
             id="path80"
             style="fill:#442921;fill-opacity:1;fill-rule:nonzero;stroke:none"
             d="M 0,0 H -43.528 V 44.495 H -62.171 V -14.07 H 0 Z" /></g><g
           transform="translate(872.1758,395.9717)"
           id="g82"><path
             id="path84"
             style="fill:#442921;fill-opacity:1;fill-rule:nonzero;stroke:none"
             d="M 0,0 C 24.446,0 34.383,12.398 34.383,27.26 V 60.764 H 17.587 V 28.14 c 0,-9.058 -4.924,-14.51 -16.357,-14.51 -11.255,0 -16.971,5.452 -16.971,14.51 V 60.764 H -34.295 V 27.26 C -34.295,12.047 -23.919,0 0,0" /></g><g
           transform="translate(971.6279,421.0332)"
           id="g86"><path
             id="path88"
             style="fill:#442921;fill-opacity:1;fill-rule:nonzero;stroke:none"
             d="m 0,0 -3.869,4.133 -30.602,31.569 h -16.356 v -58.565 h 17.676 V 12.839 L -29.37,8.794 1.759,-22.863 H 17.676 V 35.702 H 0 Z" /></g><g
           transform="translate(1040.3896,445.2158)"
           id="g90"><path
             id="path92"
             style="fill:#442921;fill-opacity:1;fill-rule:nonzero;stroke:none"
             d="M 0,0 C 9.146,0 16.444,-3.43 21.28,-7.914 L 30.514,2.462 C 24.271,8.97 12.399,13.718 -1.055,13.718 c -22.776,0 -38.253,-14.333 -38.253,-31.041 v -1.232 c 0,-16.708 14.862,-30.689 37.989,-30.689 13.718,0 24.886,4.748 31.305,11.08 L 21.457,-27.7 c -4.485,-4.045 -12.311,-7.914 -21.018,-7.914 -13.102,0 -20.752,7.738 -20.752,17.323 v 0.704 C -20.313,-7.914 -12.663,0 0,0" /></g><g
           transform="translate(1131.9277,433.3447)"
           id="g94"><path
             id="path96"
             style="fill:#442921;fill-opacity:1;fill-rule:nonzero;stroke:none"
             d="M 0,0 H -31.657 V 23.391 H -50.3 v -58.566 h 18.643 v 22.688 H 0 V -35.175 H 18.643 V 23.391 H 0 Z" /></g></g></g></g></svg>